<mxfile host="app.diagrams.net" agent="Mozilla/5.0 (Windows NT 10.0; Win64; x64) AppleWebKit/537.36 (KHTML, like Gecko) Chrome/133.0.0.0 Safari/537.36 Edg/133.0.0.0" version="25.0.3">
  <diagram name="Trang-1" id="oqmT0XE8B0uj2X5UL04K">
    <mxGraphModel dx="1426" dy="755" grid="1" gridSize="10" guides="1" tooltips="1" connect="1" arrows="1" fold="1" page="1" pageScale="1" pageWidth="827" pageHeight="1169" math="0" shadow="0">
      <root>
        <mxCell id="0" />
        <mxCell id="1" parent="0" />
        <mxCell id="Vatp5UMZ1izQ7E7weLZX-3" style="edgeStyle=orthogonalEdgeStyle;rounded=0;orthogonalLoop=1;jettySize=auto;html=1;entryX=0.5;entryY=0;entryDx=0;entryDy=0;" edge="1" parent="1" source="Vatp5UMZ1izQ7E7weLZX-1" target="Vatp5UMZ1izQ7E7weLZX-2">
          <mxGeometry relative="1" as="geometry" />
        </mxCell>
        <mxCell id="Vatp5UMZ1izQ7E7weLZX-1" value="Ban quản lý" style="rounded=0;whiteSpace=wrap;html=1;" vertex="1" parent="1">
          <mxGeometry x="450" y="110" width="120" height="60" as="geometry" />
        </mxCell>
        <mxCell id="Vatp5UMZ1izQ7E7weLZX-2" value="Academic computing" style="rounded=0;whiteSpace=wrap;html=1;" vertex="1" parent="1">
          <mxGeometry x="450" y="210" width="120" height="60" as="geometry" />
        </mxCell>
        <mxCell id="Vatp5UMZ1izQ7E7weLZX-4" value="Technical Support and Maintance" style="rounded=0;whiteSpace=wrap;html=1;" vertex="1" parent="1">
          <mxGeometry x="130" y="370" width="120" height="60" as="geometry" />
        </mxCell>
        <mxCell id="Vatp5UMZ1izQ7E7weLZX-5" value="Software specialist" style="rounded=0;whiteSpace=wrap;html=1;" vertex="1" parent="1">
          <mxGeometry x="340" y="370" width="120" height="60" as="geometry" />
        </mxCell>
        <mxCell id="Vatp5UMZ1izQ7E7weLZX-6" value="Financial Information" style="rounded=0;whiteSpace=wrap;html=1;" vertex="1" parent="1">
          <mxGeometry x="560" y="370" width="120" height="60" as="geometry" />
        </mxCell>
        <mxCell id="Vatp5UMZ1izQ7E7weLZX-7" value="Computing Support Center" style="rounded=0;whiteSpace=wrap;html=1;" vertex="1" parent="1">
          <mxGeometry x="760" y="370" width="120" height="60" as="geometry" />
        </mxCell>
        <mxCell id="Vatp5UMZ1izQ7E7weLZX-9" value="" style="endArrow=none;html=1;rounded=0;" edge="1" parent="1">
          <mxGeometry width="50" height="50" relative="1" as="geometry">
            <mxPoint x="180" y="320" as="sourcePoint" />
            <mxPoint x="820" y="320" as="targetPoint" />
          </mxGeometry>
        </mxCell>
        <mxCell id="Vatp5UMZ1izQ7E7weLZX-10" value="" style="endArrow=classic;html=1;rounded=0;entryX=0.417;entryY=-0.033;entryDx=0;entryDy=0;entryPerimeter=0;" edge="1" parent="1" target="Vatp5UMZ1izQ7E7weLZX-4">
          <mxGeometry width="50" height="50" relative="1" as="geometry">
            <mxPoint x="180" y="320" as="sourcePoint" />
            <mxPoint x="90" y="330" as="targetPoint" />
          </mxGeometry>
        </mxCell>
        <mxCell id="Vatp5UMZ1izQ7E7weLZX-11" value="" style="endArrow=classic;html=1;rounded=0;entryX=0.417;entryY=-0.033;entryDx=0;entryDy=0;entryPerimeter=0;" edge="1" parent="1">
          <mxGeometry width="50" height="50" relative="1" as="geometry">
            <mxPoint x="399.5" y="321" as="sourcePoint" />
            <mxPoint x="399.5" y="369" as="targetPoint" />
          </mxGeometry>
        </mxCell>
        <mxCell id="Vatp5UMZ1izQ7E7weLZX-12" value="" style="endArrow=classic;html=1;rounded=0;entryX=0.417;entryY=-0.033;entryDx=0;entryDy=0;entryPerimeter=0;" edge="1" parent="1">
          <mxGeometry width="50" height="50" relative="1" as="geometry">
            <mxPoint x="619.5" y="322" as="sourcePoint" />
            <mxPoint x="619.5" y="370" as="targetPoint" />
          </mxGeometry>
        </mxCell>
        <mxCell id="Vatp5UMZ1izQ7E7weLZX-13" value="" style="endArrow=classic;html=1;rounded=0;entryX=0.417;entryY=-0.033;entryDx=0;entryDy=0;entryPerimeter=0;" edge="1" parent="1">
          <mxGeometry width="50" height="50" relative="1" as="geometry">
            <mxPoint x="819.5" y="321" as="sourcePoint" />
            <mxPoint x="819.5" y="369" as="targetPoint" />
          </mxGeometry>
        </mxCell>
        <mxCell id="Vatp5UMZ1izQ7E7weLZX-14" value="" style="endArrow=none;html=1;rounded=0;entryX=0.5;entryY=1;entryDx=0;entryDy=0;" edge="1" parent="1" target="Vatp5UMZ1izQ7E7weLZX-2">
          <mxGeometry width="50" height="50" relative="1" as="geometry">
            <mxPoint x="510" y="320" as="sourcePoint" />
            <mxPoint x="440" y="360" as="targetPoint" />
          </mxGeometry>
        </mxCell>
      </root>
    </mxGraphModel>
  </diagram>
</mxfile>
